<svg width="256" height="256" viewBox="0 0 256 256" fill="none" xmlns="http://www.w3.org/2000/svg">
<g clip-path="url(#clip0_1137_303)">
<path d="M-0.00390625 3.3268e-05H255.996V256H-0.00390625V3.3268e-05Z" fill="#32847A"/>
<path d="M101.609 157.85L114.996 138.491C118.173 137.934 122.26 138.388 127.203 141.284C135.174 145.956 140.224 143.732 142.953 141.277L154.418 157.857C154.723 158.298 154.753 158.803 154.501 159.282C154.25 159.761 153.819 160.023 153.275 160.023H102.746C102.208 160.023 101.771 159.761 101.519 159.282C101.274 158.803 101.304 158.298 101.609 157.85Z" fill="white"/>
<path d="M160.441 160.975C160.167 162.573 158.16 163.621 155.29 164.299C154.766 164.427 154.216 164.535 153.641 164.638C144.584 166.216 129.718 164.983 129.718 164.983L128.011 164.912L97.3447 163.641C97.3447 163.641 90.6144 158.93 105.583 142.683C105.583 142.683 105.928 142.223 106.606 141.577C106.842 141.347 107.124 141.098 107.443 140.842C108.364 140.088 109.616 139.251 111.201 138.605L98.2331 157.351C97.5045 158.412 97.4214 159.723 98.0222 160.86C98.6166 161.998 99.7415 162.682 101.026 162.682H154.996C156.287 162.682 157.412 161.998 158.006 160.86C158.601 159.723 158.524 158.412 157.789 157.358L145.326 139.321C146.265 138.183 146.7 137.263 146.7 137.263C146.7 137.263 147.243 137.896 148.119 138.963C148.662 139.621 149.327 140.452 150.068 141.404C154.382 146.92 161.215 156.514 160.441 160.975Z" fill="white"/>
<path d="M128.008 162.683V167.285H101.023C100.358 167.285 99.7064 167.202 99.0864 167.049C96.9005 166.505 95.0214 165.054 93.9413 162.996C92.5543 160.35 92.7524 157.187 94.4462 154.739L104.033 140.869L106.801 136.874L110.24 131.902L113.244 127.556C113.857 126.661 114.407 125.734 114.88 124.769C116.331 121.822 117.085 118.582 117.085 115.246V93.3484H115.116V88.7465H121.687V115.246C121.687 120.608 120.076 125.772 117.027 130.176L111.198 138.607L98.23 157.353C97.5013 158.414 97.4182 159.724 98.019 160.862C98.6134 161.999 99.7383 162.683 101.023 162.683H128.008" fill="white"/>
<path d="M89.711 190.498C89.1486 190.159 88.5925 189.807 88.0365 189.443L87.4548 189.066H86.7709V191.373L85.5182 193.297C86.0487 193.642 86.5792 193.981 87.1161 194.314C99.3878 201.907 113.487 205.914 128.009 205.914V201.312C114.414 201.312 101.216 197.58 89.711 190.498ZM78.5451 182.087C63.3717 168.211 54.7112 148.614 54.7112 128.008C54.7112 127.12 54.7304 126.231 54.7688 125.298C54.7752 124.806 54.8007 124.32 54.8391 123.751C54.8455 123.515 54.8646 123.279 54.8838 123.029C54.8966 122.761 54.9158 122.499 54.9477 122.179C54.9797 121.693 55.0244 121.208 55.0819 120.69C55.1331 120.102 55.1906 119.52 55.2737 118.894C55.3568 118.21 55.4526 117.52 55.5613 116.817C55.6508 116.21 55.7595 115.609 55.8617 115.014C55.9576 114.471 56.0662 113.928 56.1941 113.327C56.258 112.963 56.3347 112.592 56.4178 112.234L56.4433 112.119C56.5136 111.793 56.5839 111.461 56.667 111.147L56.699 111.02C56.7373 110.841 56.7821 110.668 56.8268 110.496L56.846 110.406C56.878 110.259 56.9163 110.112 56.9483 109.971C56.9802 109.844 57.0186 109.709 57.0633 109.562L57.0953 109.435C57.1272 109.275 57.172 109.121 57.2167 108.955C57.2678 108.776 57.319 108.597 57.3701 108.418C57.4404 108.15 57.5107 107.888 57.5938 107.619C57.6705 107.325 57.76 107.031 57.8558 106.725C57.9325 106.482 58.0029 106.239 58.0859 105.996L58.1882 105.798L58.2457 105.159L56.4114 105.114L53.9634 103.887C53.8931 104.021 53.8356 104.162 53.7908 104.309L53.6439 104.615V104.775C53.5735 104.986 53.516 105.191 53.4585 105.382C53.401 105.561 53.3435 105.734 53.2987 105.913H53.2923C53.1645 106.347 53.0431 106.769 52.9408 107.166C52.8194 107.562 52.7107 107.958 52.6212 108.361C52.519 108.706 52.4359 109.045 52.372 109.339C52.3144 109.562 52.2569 109.786 52.2058 110.016C52.1099 110.387 52.0268 110.777 51.9373 111.186C51.8351 111.62 51.7456 112.061 51.6817 112.432C51.5538 113.007 51.4388 113.608 51.3301 114.203C51.2215 114.835 51.1192 115.474 51.0106 116.133C50.8955 116.868 50.7933 117.622 50.7102 118.325C50.6207 118.977 50.5568 119.629 50.4992 120.23C50.4417 120.767 50.3906 121.31 50.3586 121.796C50.3267 122.109 50.3075 122.422 50.2883 122.722C50.2691 123.004 50.25 123.304 50.2436 123.515C50.2052 124.077 50.1733 124.646 50.1669 125.164C50.1285 126.11 50.1094 127.056 50.1094 128.008C50.1094 149.976 59.377 170.87 75.5922 185.621C76.0588 186.049 76.5254 186.465 77.0048 186.88L80.0215 183.397C79.523 182.962 79.0309 182.528 78.5451 182.087V182.087ZM77.0175 69.117L76.4615 69.6155C76.2314 69.8073 76.0141 70.0054 75.7904 70.2227L75.784 70.2292C75.4005 70.5551 74.9978 70.9258 74.5504 71.3668C74.4865 71.418 74.4226 71.4755 74.3587 71.5394C74.2948 71.6033 74.2308 71.6672 74.1605 71.7375C74.0008 71.8845 73.8473 72.0251 73.7003 72.1721C73.5469 72.3191 73.3936 72.4725 73.2402 72.6195L72.9589 72.8944C72.8247 73.0222 72.6969 73.1564 72.5755 73.2779C72.454 73.4057 72.339 73.5207 72.2431 73.6294C72.2303 73.6358 72.2239 73.6486 72.2111 73.655V73.6613C72.1408 73.738 72.0641 73.8084 71.9938 73.8851C71.898 73.9745 71.8149 74.0641 71.7318 74.1471C71.6806 74.1983 71.6295 74.2558 71.5848 74.3069C71.4825 74.4092 71.3866 74.5114 71.2972 74.6137C70.6772 75.2592 70.0636 75.9431 69.482 76.6079C69.0218 77.1256 68.5808 77.6496 68.1781 78.1354C67.6987 78.6915 67.2385 79.2667 66.8295 79.7972C66.446 80.2829 66.0689 80.7623 65.7174 81.2353C65.1549 81.9767 64.6117 82.7309 64.0939 83.4659C63.8447 83.8175 63.6082 84.1753 63.3653 84.5269L63.1161 84.8976C62.7006 85.5176 62.2979 86.1439 61.9528 86.7128C61.761 87.0068 61.5821 87.3008 61.4095 87.6012C61.2945 87.7802 61.1794 87.9655 61.0771 88.1509C60.9046 88.4321 60.732 88.7261 60.5914 88.9754C60.5019 89.1224 60.4124 89.2758 60.3294 89.4228C60.1632 89.7104 59.997 89.998 59.85 90.2729C59.8372 90.2984 59.8244 90.3176 59.8116 90.3431C59.7349 90.4837 59.6582 90.618 59.5879 90.7522C59.524 90.8737 59.4537 90.9951 59.3898 91.1165C59.1597 91.5448 58.9296 91.9858 58.6931 92.4332L58.5589 92.7016C58.5589 92.7016 58.5589 92.6952 58.5525 92.7016C58.5078 92.7975 58.4566 92.8997 58.4055 92.9956H58.2841L57.7152 94.4082L57.6385 94.5807L59.7733 95.4372L59.8372 95.4628V95.4756L59.85 97.5975L61.3456 97.6487L61.9144 96.3064L61.94 96.2425L62.0167 96.0955C62.266 95.5714 62.5216 95.0537 62.7901 94.5296C62.8093 94.4912 62.8284 94.4465 62.854 94.4082C62.8987 94.3187 62.9435 94.2356 62.9882 94.1461C63.1991 93.7562 63.4164 93.3535 63.6465 92.9317C63.9278 92.3884 64.2409 91.8451 64.5733 91.2827C64.7139 91.027 64.8673 90.7714 65.0143 90.5285L65.0718 90.4263C65.1549 90.2857 65.238 90.1514 65.3275 90.0108L65.385 89.915C65.5129 89.6849 65.6535 89.4611 65.8452 89.1671C66.1967 88.5855 66.5611 88.0231 66.9318 87.4734L67.181 87.1027C67.3983 86.7831 67.6156 86.4635 67.8521 86.1248C68.3507 85.4153 68.862 84.7123 69.3989 84.0028C69.5651 83.7727 69.7312 83.5554 69.9102 83.3253C70.0828 83.1016 70.2617 82.8715 70.4599 82.6287C70.8434 82.1237 71.246 81.6252 71.7062 81.0883C72.1025 80.6089 72.5051 80.1359 72.9398 79.6502C73.483 79.0238 74.0519 78.3911 74.6591 77.7519C74.7933 77.6113 74.9275 77.4643 75.0617 77.3237C75.2151 77.1703 75.3813 77.0041 75.5603 76.8188C75.7201 76.6462 75.8863 76.48 76.0588 76.3011C76.1163 76.2436 76.1803 76.1796 76.2442 76.1157L76.4615 75.9048C76.7491 75.6236 77.0303 75.3423 77.3243 75.0803L77.4713 74.9333C77.5097 74.8949 77.5416 74.8566 77.58 74.8246L77.7078 74.7096C77.9443 74.4795 78.1808 74.2494 78.43 74.0321C78.5643 73.9107 78.6985 73.7956 78.8327 73.6806L78.9733 73.5463C79.1203 73.3993 79.2673 73.2651 79.4207 73.1373L80.1174 72.5173L77.0175 69.117ZM86.9883 61.7924C86.5025 62.0928 86.0232 62.3932 85.5502 62.7064L88.062 66.5604C88.682 66.1578 89.302 65.7615 89.9284 65.3844C101.369 58.3985 114.484 54.717 128.009 54.717V50.1151C113.423 50.1151 99.2727 54.1546 86.9883 61.7924Z" fill="white"/>
<path d="M106.804 136.874C106.152 136.702 105.5 136.51 104.855 136.318C96.5844 133.832 88.8826 129.927 81.9351 124.686C74.6871 119.221 68.6024 112.574 63.8407 104.923C63.5148 104.399 63.1952 103.869 62.882 103.338L58.9193 105.671C59.258 106.253 59.6096 106.828 59.9675 107.397C65.0232 115.514 71.4786 122.557 79.1612 128.354C86.1598 133.634 93.8552 137.635 102.113 140.281C102.752 140.492 103.391 140.69 104.037 140.869C104.887 141.125 105.743 141.361 106.606 141.578C106.811 141.636 107.015 141.687 107.22 141.738L107.443 140.843L108.326 137.271C107.814 137.143 107.309 137.015 106.804 136.874ZM77.02 69.1182L76.4639 69.6167C76.2338 69.8084 76.0165 70.0066 75.7928 70.2239L75.7864 70.2303C75.4029 70.5563 75.0003 70.927 74.5529 71.368C74.489 71.4191 74.4251 71.4766 74.3611 71.5406C74.2972 71.6045 74.2333 71.6684 74.163 71.7387C74.0032 71.8857 73.8498 72.0263 73.7028 72.1733C73.5494 72.3203 73.396 72.4737 73.2426 72.6207L72.9614 72.8955C72.8272 73.0233 72.6994 73.1576 72.5779 73.279C72.4501 73.4068 72.3286 73.5283 72.2136 73.6561V73.6625C72.041 73.8287 71.8876 73.9885 71.7342 74.1483C71.6831 74.1994 71.632 74.2569 71.5872 74.3081C71.485 74.4103 71.3891 74.5126 71.2996 74.6148C70.6796 75.2604 70.066 75.9443 69.4844 76.609C69.0242 77.1267 68.5832 77.6508 68.1806 78.1365C67.7012 78.6926 67.241 79.2678 66.8319 79.7983C66.4485 80.2841 66.0714 80.7634 65.7198 81.2364C65.1574 81.9778 64.6141 82.732 64.0964 83.4671C63.8471 83.8186 63.6107 84.1765 63.3678 84.528L63.1185 84.8988C62.7031 85.5188 62.3004 86.1451 61.9552 86.7139C61.7635 87.0079 61.5845 87.302 61.412 87.6024C61.2969 87.7813 61.1819 87.9667 61.0796 88.152C60.907 88.4332 60.7345 88.7273 60.5939 88.9765C60.5044 89.1235 60.4149 89.2769 60.3318 89.4239C60.1656 89.7116 59.9995 89.9992 59.8525 90.274C59.8397 90.2996 59.8269 90.3187 59.8141 90.3443C59.7374 90.4849 59.6607 90.6191 59.5904 90.7534C59.5265 90.8748 59.4562 90.9962 59.3923 91.1177C59.1622 91.5459 58.9321 91.9869 58.6956 92.4343L58.5614 92.7028C58.3313 93.1502 58.1076 93.6039 57.8903 94.0641C57.8519 94.1408 57.8136 94.2176 57.7816 94.2943C57.7688 94.3134 57.7561 94.3326 57.7497 94.3518V94.3582C57.7433 94.371 57.7369 94.3901 57.7305 94.4029L58.2546 94.6266L59.7757 95.4383L59.8397 95.4767L61.7507 96.6207C61.7827 96.5632 61.8146 96.5057 61.8466 96.4481L61.9169 96.3076L61.9425 96.2437L62.0192 96.0966C62.2684 95.5725 62.5241 95.0548 62.7925 94.5307C62.8117 94.4924 62.8309 94.4477 62.8565 94.4093C62.9012 94.3198 62.9459 94.2367 62.9907 94.1472C63.2016 93.7573 63.4189 93.3547 63.649 92.9328C63.9302 92.3896 64.2434 91.8463 64.5758 91.2838C64.7164 91.0282 64.8698 90.7725 65.0168 90.5297L65.0743 90.4274C65.1574 90.2868 65.2405 90.1526 65.3299 90.012L65.3875 89.9161C65.5153 89.686 65.6559 89.4623 65.8477 89.1683C66.1992 88.5867 66.5635 88.0242 66.9342 87.4745L67.1835 87.1038C67.4008 86.7843 67.6181 86.4646 67.8546 86.1259C68.3531 85.4164 68.8644 84.7134 69.4013 84.004C69.5675 83.7739 69.7337 83.5565 69.9127 83.3264C70.0852 83.1027 70.2642 82.8727 70.4623 82.6298C70.8458 82.1249 71.2485 81.6263 71.7087 81.0894C72.1049 80.6101 72.5076 80.1371 72.9422 79.6513C73.4855 79.025 74.0543 78.3922 74.6615 77.753C74.7957 77.6124 74.93 77.4655 75.0642 77.3249C75.2176 77.1715 75.3838 77.0053 75.5627 76.8199C75.7225 76.6473 75.8887 76.4812 76.0613 76.3022C76.1188 76.2447 76.1827 76.1808 76.2466 76.1168L76.4639 75.9059C76.7515 75.6247 77.0328 75.3435 77.3268 75.0814L77.4738 74.9344C77.5121 74.8961 77.5441 74.8577 77.5824 74.8258L77.7103 74.7107C77.9468 74.4806 78.1832 74.2506 78.4325 74.0332C78.5667 73.9118 78.701 73.7968 78.8352 73.6817L78.9758 73.5475C79.1228 73.4005 79.2698 73.2663 79.4232 73.1384L80.1199 72.5184L77.02 69.1182ZM86.9907 61.7935C86.505 62.0939 86.0256 62.3943 85.5526 62.7075L88.0645 66.5616C88.6845 66.1589 89.3044 65.7626 89.9308 65.3855C101.372 58.3996 114.487 54.7182 128.011 54.7182V50.1163C113.426 50.1163 99.2752 54.1557 86.9907 61.7935Z" fill="white"/>
<path d="M88.0656 186.887L85.0508 183.41C91.4825 177.83 96.845 171.253 100.989 163.858L105.004 166.108C100.599 173.97 94.9007 180.962 88.0656 186.887" fill="white"/>
<path d="M114.799 132.82L110.207 132.514C110.301 131.075 110.349 129.561 110.349 128.008C110.349 106.98 101.291 86.9294 85.4961 73.0023L88.5391 69.5509C105.324 84.3472 114.951 105.656 114.951 128.008C114.951 129.663 114.9 131.28 114.799 132.82Z" fill="white"/>
<path d="M61.3458 97.6484L59.8489 97.5973L59.8399 95.4625L57.6406 94.5805L57.7173 94.4079L58.2849 92.9954H58.4082C58.5035 92.81 58.6 92.6183 58.6978 92.4329C58.9835 91.8641 59.2858 91.2952 59.6073 90.7264C59.8898 90.1831 60.2407 89.5696 60.5922 88.9752C60.7341 88.7259 60.9048 88.4319 61.0761 88.1506C61.1828 87.9589 61.2946 87.78 61.4097 87.601C61.5816 87.3006 61.7638 87.0066 61.9555 86.7126C62.2987 86.1437 62.7046 85.5174 63.12 84.8974L63.3693 84.5267C63.609 84.1751 63.8487 83.8172 64.0986 83.4657C64.6163 82.7243 65.1577 81.9765 65.7188 81.235C66.0723 80.7621 66.4474 80.2763 66.8329 79.797C67.2387 79.2665 67.704 78.6912 68.1821 78.1352C68.5797 77.6494 69.0239 77.1254 69.4866 76.6076C70.0663 75.9429 70.6799 75.259 71.3012 74.6135C71.5837 74.3003 71.9096 73.9679 72.2458 73.6292C72.442 73.4183 72.7015 73.1562 72.961 72.8941L73.2423 72.6193C73.5465 72.3189 73.852 72.0185 74.1626 71.7373C74.2937 71.5967 74.4189 71.4752 74.55 71.3602C74.9974 70.9256 75.4039 70.5549 75.7867 70.2289C76.0085 70.0052 76.2315 69.8071 76.4629 69.6153L77.0196 69.1168L80.1189 72.5171L79.4247 73.1371C79.2701 73.2649 79.1224 73.3991 78.9741 73.5461L78.8323 73.6804C78.45 73.9999 78.0768 74.3514 77.7105 74.7094L77.5801 74.8244C77.5431 74.8563 77.5105 74.8947 77.4734 74.9331L77.327 75.0801C77.0349 75.3421 76.7493 75.6234 76.4636 75.9046L76.2469 76.1155C75.9951 76.3711 75.7739 76.5885 75.5592 76.8185C75.2159 77.1701 74.9341 77.4577 74.6624 77.7517C74.0527 78.3908 73.4877 79.0172 72.9393 79.65C72.5053 80.1357 72.1027 80.6087 71.7083 81.0881C71.2507 81.6249 70.8461 82.1235 70.4594 82.6284C70.0753 83.1078 69.7327 83.5488 69.399 83.9962C68.8609 84.712 68.3534 85.4151 67.8549 86.1245C67.6158 86.4633 67.4011 86.7829 67.1844 87.1025L66.9338 87.4732C66.5651 88.0228 66.1976 88.5853 65.8479 89.1669C65.6575 89.4609 65.5169 89.6846 65.3846 89.9147L65.329 90.0106C65.2414 90.1512 65.1545 90.2854 65.0758 90.4261L65.0171 90.5283C64.8669 90.7712 64.7173 91.0268 64.5747 91.2761C64.2437 91.845 63.9311 92.3882 63.6461 92.9315C63.3207 93.5067 63.0523 94.018 62.7922 94.5293C62.5218 95.0534 62.2661 95.5712 62.0201 96.0953L61.9408 96.2423L61.3458 97.6484" fill="white"/>
<path d="M77.0054 186.879C59.9126 172.063 50.1094 150.607 50.1094 128.007C50.1094 127.055 50.1279 126.109 50.1662 125.163C50.1745 124.645 50.204 124.076 50.2442 123.514C50.2493 123.296 50.2698 123.002 50.2896 122.715C50.3088 122.421 50.3292 122.108 50.3593 121.794C50.3931 121.309 50.4417 120.765 50.5005 120.228C50.5542 119.621 50.622 118.976 50.7089 118.324C50.7913 117.621 50.8962 116.867 51.0112 116.131C51.1026 115.492 51.2176 114.84 51.3327 114.201C51.4381 113.607 51.5545 113.006 51.6798 112.424C51.7456 112.06 51.8357 111.619 51.9367 111.185C52.0236 110.775 52.108 110.386 52.2051 110.015C52.255 109.785 52.3125 109.561 52.3707 109.337C52.4346 109.043 52.5215 108.705 52.6199 108.359C52.7113 107.957 52.8206 107.561 52.9401 107.164C53.0859 106.608 53.261 105.995 53.4572 105.381C53.5128 105.189 53.5748 104.985 53.6432 104.774V104.614L53.7908 104.307C53.8362 104.16 53.8925 104.02 53.9602 103.885L56.4107 105.113L58.2451 105.157L58.1863 105.796L58.0866 105.995C58.0016 106.237 57.93 106.48 57.8571 106.723C57.6699 107.318 57.5152 107.861 57.3682 108.417C57.2525 108.8 57.1649 109.12 57.0933 109.433L57.0614 109.561C56.9815 109.842 56.9099 110.117 56.8466 110.405L56.8236 110.494C56.7795 110.667 56.7348 110.839 56.6971 111.018L56.667 111.146C56.582 111.459 56.5123 111.792 56.4433 112.118L56.4178 112.233C56.3347 112.591 56.2593 112.955 56.1922 113.326C56.0637 113.926 55.9595 114.47 55.863 115.013C55.7562 115.607 55.6501 116.202 55.5626 116.815C55.452 117.518 55.3548 118.209 55.2756 118.893C55.1925 119.519 55.1318 120.101 55.08 120.689C55.0231 121.206 54.979 121.692 54.9445 122.178C54.9145 122.497 54.8979 122.759 54.8819 123.028C54.8634 123.277 54.8467 123.514 54.8391 123.75C54.8007 124.319 54.7745 124.805 54.7656 125.297C54.7291 126.23 54.7112 127.119 54.7112 128.007C54.7112 149.271 63.9361 169.462 80.019 183.396L77.0054 186.879" fill="white"/>
<path d="M82.5327 191.285C80.9476 191.285 79.6566 189.994 79.6566 188.409C79.6566 186.824 80.9476 185.533 82.5327 185.533C84.1178 185.533 85.4089 186.824 85.4089 188.409C85.4089 189.994 84.1178 191.285 82.5327 191.285ZM89.4739 185.635C88.8859 184.165 87.8504 182.925 86.5274 182.094C85.3706 181.352 84.0028 180.931 82.5327 180.931C81.0627 180.931 79.6949 181.352 78.5444 182.087C77.2278 182.918 76.186 184.158 75.5916 185.622C75.2464 186.485 75.0547 187.424 75.0547 188.409C75.0547 192.531 78.4102 195.887 82.5327 195.887C84.2584 195.887 85.8499 195.299 87.1154 194.314C88.3426 193.362 89.2693 192.026 89.7104 190.499C89.9085 189.834 90.0108 189.137 90.0108 188.409C90.0108 187.424 89.819 186.491 89.4739 185.635" fill="white"/>
<path d="M58.0718 97.2825C59.6569 97.2825 60.948 98.5736 60.948 100.159C60.948 101.744 59.6569 103.035 58.0718 103.035C56.4867 103.035 55.1956 101.744 55.1956 100.159C55.1956 98.5736 56.4867 97.2825 58.0718 97.2825ZM62.8526 94.4063C61.6702 93.4284 60.181 92.8021 58.5576 92.6998C58.5576 92.6998 58.5575 92.6934 58.5512 92.6998C58.3914 92.687 58.2316 92.6806 58.0718 92.6806C53.9493 92.6806 50.5938 96.0362 50.5938 100.159C50.5938 102.466 51.642 104.53 53.291 105.911H53.2974C54.4798 106.895 55.969 107.515 57.5924 107.618C57.7522 107.63 57.912 107.637 58.0718 107.637C58.7237 107.637 59.3565 107.554 59.9637 107.394C61.504 106.991 62.8462 106.109 63.8369 104.92C64.9043 103.623 65.5498 101.961 65.5498 100.159C65.5498 97.8513 64.5016 95.7869 62.8526 94.4063" fill="white"/>
<path d="M82.9546 70.9567C81.3695 70.9567 80.0784 69.6656 80.0784 68.0806C80.0784 66.4955 81.3695 65.2044 82.9546 65.2044C84.5397 65.2044 85.8308 66.4955 85.8308 68.0806C85.8308 69.6656 84.5397 70.9567 82.9546 70.9567ZM89.9277 65.3833C89.3525 63.8941 88.3107 62.6414 86.9876 61.7914C85.8244 61.0372 84.4438 60.6025 82.9546 60.6025C78.8321 60.6025 75.4766 63.958 75.4766 68.0806C75.4766 68.822 75.5852 69.5442 75.7897 70.2217C76.2499 71.7557 77.1895 73.0851 78.4294 74.0311C79.6885 74.9898 81.2545 75.5586 82.9546 75.5586C84.4438 75.5586 85.8372 75.124 87.0004 74.3634C88.3107 73.5197 89.3461 72.2734 89.9213 70.7969C90.2537 69.9533 90.4326 69.0393 90.4326 68.0806C90.4326 67.1282 90.2537 66.2206 89.9277 65.3833" fill="white"/>
<path d="M162.081 162.996C161.001 165.054 159.122 166.505 156.929 167.049C156.309 167.202 155.657 167.285 154.993 167.285H128.008V162.683H154.993C156.284 162.683 157.409 161.999 158.003 160.862C158.597 159.724 158.521 158.414 157.786 157.359L145.322 139.322L138.995 130.176C135.946 125.772 134.335 120.608 134.335 115.246V88.7465H140.906V93.3484H138.937V115.246C138.937 118.582 139.691 121.822 141.142 124.769C141.609 125.734 142.159 126.661 142.779 127.556L145.776 131.895L149.221 136.874L151.989 140.869L161.576 154.739C163.27 157.187 163.461 160.35 162.081 162.996Z" fill="white"/>
<path d="M169.246 191.373V189.066H168.555L167.987 189.443C167.431 189.807 166.874 190.159 166.312 190.498C154.807 197.58 141.609 201.312 128.008 201.312V205.914C142.536 205.914 156.629 201.907 168.901 194.307C169.437 193.981 169.968 193.642 170.498 193.297L169.246 191.373ZM205.856 125.215C205.843 124.646 205.818 124.077 205.779 123.592C205.773 123.298 205.748 123.004 205.735 122.742C205.709 122.422 205.69 122.109 205.664 121.853C205.626 121.31 205.581 120.767 205.524 120.275C205.466 119.629 205.396 118.977 205.313 118.37C205.23 117.622 205.128 116.874 205.012 116.158C204.917 115.494 204.802 114.848 204.687 114.209C204.584 113.608 204.463 113.007 204.354 112.502C204.277 112.061 204.182 111.62 204.073 111.141C203.996 110.764 203.913 110.381 203.817 110.016C203.766 109.786 203.709 109.569 203.664 109.409C203.587 109.051 203.498 108.706 203.402 108.361C203.325 108.067 203.248 107.779 203.178 107.504C203.153 107.408 203.127 107.319 203.101 107.236C202.98 106.782 202.852 106.341 202.724 105.913C202.68 105.747 202.628 105.587 202.577 105.427C202.507 105.197 202.437 104.967 202.366 104.737L202.36 104.532L202.213 104.257C202.168 104.13 202.117 104.002 202.053 103.874L199.529 105.159H197.777V105.561L197.835 105.817L197.944 106.022C198.02 106.252 198.097 106.488 198.18 106.776C198.269 107.051 198.353 107.332 198.436 107.619C198.512 107.894 198.589 108.182 198.672 108.489C198.736 108.719 198.806 108.962 198.883 109.236C198.896 109.3 198.915 109.371 198.928 109.435L198.96 109.562C199.036 109.844 199.113 110.118 199.171 110.406L199.196 110.496C199.241 110.668 199.286 110.841 199.324 111.02L199.356 111.147C199.439 111.461 199.503 111.78 199.573 112.1L199.605 112.234C199.688 112.592 199.759 112.963 199.842 113.404C199.957 113.928 200.059 114.471 200.155 115.014C200.264 115.609 200.372 116.21 200.462 116.842C200.57 117.52 200.666 118.21 200.749 118.939C200.826 119.52 200.89 120.102 200.948 120.735C200.999 121.208 201.043 121.693 201.082 122.237C201.107 122.499 201.12 122.761 201.139 123.048C201.158 123.278 201.171 123.515 201.184 123.835C201.222 124.32 201.248 124.806 201.254 125.349C201.293 126.231 201.312 127.12 201.312 128.008C201.312 148.621 192.645 168.217 177.472 182.087C176.986 182.534 176.5 182.969 176.002 183.397L179.012 186.88C179.491 186.471 179.958 186.049 180.424 185.628C196.646 170.876 205.914 149.982 205.914 128.008C205.914 127.062 205.895 126.11 205.856 125.215V125.215ZM198.295 94.3826L197.726 92.9956H197.618C197.566 92.8997 197.515 92.8039 197.464 92.7016C197.419 92.6057 197.368 92.5099 197.317 92.414C197.023 91.8579 196.729 91.3019 196.454 90.797C196.135 90.1834 195.783 89.5698 195.451 89.0074C195.285 88.7261 195.118 88.4321 194.946 88.1509C194.844 87.9655 194.735 87.793 194.614 87.6012C194.441 87.3008 194.262 87.0068 194.109 86.7831C193.725 86.144 193.316 85.5176 192.894 84.8848L192.651 84.5269C192.415 84.1753 192.172 83.8175 191.942 83.4915C191.405 82.7309 190.868 81.9767 190.318 81.2545C189.948 80.756 189.564 80.2574 189.219 79.8419C188.778 79.2603 188.312 78.6851 187.877 78.1801C187.442 77.6497 187.001 77.1256 186.547 76.6207C185.883 75.8601 185.288 75.2017 184.751 74.6457C184.445 74.3133 184.138 73.9873 183.806 73.655C183.55 73.3738 183.269 73.0989 183.013 72.8433C182.629 72.4662 182.246 72.0891 181.856 71.7375C181.728 71.5969 181.6 71.4755 181.473 71.3668C181.025 70.9322 180.623 70.5551 180.239 70.2292C180.233 70.2228 180.233 70.2228 180.226 70.2164C180.009 70.0055 179.785 69.8009 179.562 69.6155L178.999 69.117L175.906 72.5173L176.596 73.1373C176.749 73.2651 176.896 73.3993 177.043 73.5463L177.19 73.6806C177.325 73.7892 177.459 73.9043 177.587 74.0321C177.829 74.243 178.072 74.4795 178.309 74.7096L178.443 74.8246C178.481 74.8566 178.513 74.8949 178.552 74.9396L178.699 75.0803C179.057 75.4062 179.402 75.745 179.785 76.1285C180.009 76.3458 180.233 76.5631 180.431 76.7868L180.539 76.9018C180.833 77.1831 181.096 77.4643 181.396 77.7903C181.971 78.3911 182.534 79.0174 183.096 79.663C183.518 80.136 183.921 80.6089 184.349 81.133C184.771 81.6252 185.18 82.1237 185.608 82.6926C185.959 83.1144 186.292 83.5554 186.637 84.0156C187.161 84.7058 187.666 85.4153 188.184 86.144C188.407 86.4636 188.618 86.7831 188.836 87.1027L189.078 87.4606C189.456 88.0231 189.826 88.5855 190.216 89.2374C190.363 89.4611 190.504 89.6849 190.638 89.915L190.702 90.03C190.785 90.1578 190.868 90.2857 190.945 90.4263L191.009 90.5285C191.156 90.7714 191.309 91.0334 191.469 91.3147C191.782 91.8451 192.089 92.3884 192.402 92.9764C192.664 93.4558 192.92 93.9352 193.169 94.4082C193.195 94.4529 193.214 94.4976 193.239 94.5424C193.444 94.9386 193.642 95.3413 193.834 95.7504C193.891 95.8654 193.949 95.9804 194 96.0955L194.671 97.5975H196.179V95.4691L196.231 95.45L198.385 94.5807C198.359 94.5168 198.327 94.4465 198.295 94.3826V94.3826ZM169.028 61.7924C156.744 54.1482 142.6 50.1151 128.008 50.1151V54.717C141.532 54.717 154.654 58.3985 166.095 65.3844C166.721 65.7679 167.347 66.1578 167.961 66.5604L170.473 62.7064C169.994 62.3932 169.514 62.0864 169.028 61.7924" fill="white"/>
<path d="M193.143 103.338C192.83 103.869 192.511 104.399 192.185 104.923C187.417 112.574 181.332 119.221 174.09 124.686C167.137 129.927 159.441 133.832 151.171 136.318C150.525 136.51 149.873 136.695 149.221 136.874C148.716 137.009 148.205 137.143 147.694 137.271L148.115 138.964L148.806 141.738C149.228 141.636 149.649 141.527 150.065 141.406C150.71 141.246 151.35 141.067 151.989 140.869C152.634 140.69 153.273 140.492 153.906 140.281C162.164 137.635 169.866 133.634 176.858 128.354C184.547 122.557 191.002 115.514 196.058 107.397C196.416 106.828 196.767 106.253 197.106 105.671L193.143 103.338ZM198.244 94.3006C198.212 94.2175 198.174 94.1408 198.135 94.0641C197.963 93.7062 197.796 93.3547 197.618 92.9967C197.566 92.9009 197.515 92.805 197.464 92.7028C197.419 92.6069 197.368 92.511 197.317 92.4151C197.023 91.8591 196.729 91.303 196.454 90.7981C196.135 90.1845 195.783 89.5709 195.451 89.0085C195.285 88.7273 195.118 88.4332 194.946 88.152C194.844 87.9667 194.735 87.7941 194.614 87.6024C194.441 87.302 194.262 87.008 194.109 86.7843C193.725 86.1451 193.316 85.5187 192.894 84.886L192.651 84.528C192.415 84.1765 192.172 83.8186 191.942 83.4926C191.405 82.7321 190.868 81.9779 190.318 81.2556C189.948 80.7571 189.564 80.2585 189.219 79.8431C188.778 79.2614 188.312 78.6862 187.877 78.1813C187.442 77.6508 187.001 77.1267 186.547 76.6218C185.883 75.8612 185.288 75.2029 184.751 74.6468C184.445 74.3144 184.138 73.9885 183.806 73.6561C183.55 73.3749 183.269 73.1001 183.013 72.8444C182.629 72.4673 182.246 72.0902 181.856 71.7387C181.728 71.5981 181.6 71.4766 181.473 71.368C181.025 70.9334 180.623 70.5563 180.239 70.2303C180.233 70.2239 180.233 70.2239 180.226 70.2175C180.009 70.0066 179.785 69.802 179.562 69.6167L178.999 69.1182L175.906 72.5184L176.596 73.1384C176.749 73.2663 176.896 73.4005 177.043 73.5475L177.19 73.6817C177.325 73.7904 177.459 73.9054 177.587 74.0332C177.829 74.2442 178.072 74.4806 178.309 74.7107L178.443 74.8258C178.481 74.8577 178.513 74.896 178.552 74.9408L178.699 75.0814C179.057 75.4074 179.402 75.7462 179.785 76.1296C180.009 76.347 180.233 76.5643 180.431 76.788L180.539 76.903C180.833 77.1842 181.096 77.4655 181.396 77.7914C181.971 78.3922 182.534 79.0186 183.096 79.6641C183.518 80.1371 183.921 80.6101 184.349 81.1342C184.771 81.6263 185.18 82.1249 185.608 82.6937C185.959 83.1156 186.292 83.5565 186.637 84.0167C187.161 84.707 187.666 85.4165 188.184 86.1451C188.407 86.4647 188.618 86.7843 188.836 87.1038L189.078 87.4617C189.456 88.0242 189.826 88.5866 190.216 89.2386C190.363 89.4623 190.504 89.686 190.638 89.9161L190.702 90.0311C190.785 90.159 190.868 90.2868 190.945 90.4274L191.009 90.5297C191.156 90.7725 191.309 91.0346 191.469 91.3158C191.782 91.8463 192.089 92.3896 192.402 92.9776C192.664 93.4569 192.92 93.9363 193.169 94.4093C193.195 94.454 193.214 94.4988 193.239 94.5435C193.444 94.9398 193.642 95.3425 193.834 95.7515C193.898 95.8666 193.949 95.9816 194.006 96.0966L194.275 96.6207L196.179 95.4767L196.231 95.4511L196.985 94.9973L198.289 94.3901L198.244 94.3006ZM169.028 61.7935C156.744 54.1493 142.6 50.1163 128.008 50.1163V54.7182C141.532 54.7182 154.654 58.3996 166.095 65.3855C166.721 65.769 167.347 66.1589 167.961 66.5616L170.473 62.7075C169.994 62.3943 169.514 62.0876 169.028 61.7935" fill="white"/>
<path d="M167.958 186.887C161.124 180.962 155.425 173.97 151.02 166.108L155.035 163.858C159.179 171.253 164.541 177.83 170.972 183.41L167.958 186.887" fill="white"/>
<path d="M141.222 132.82C141.121 131.286 141.07 129.669 141.07 128.008C141.07 105.656 150.697 84.3472 167.482 69.5509L170.525 73.0023C154.731 86.9294 145.672 106.98 145.672 128.008C145.672 129.567 145.72 131.082 145.815 132.514L141.222 132.82" fill="white"/>
<path d="M179.014 186.879L176 183.396C192.084 169.462 201.308 149.278 201.308 128.007C201.308 127.118 201.29 126.23 201.255 125.348C201.244 124.805 201.219 124.319 201.185 123.833C201.172 123.514 201.156 123.277 201.139 123.047C201.121 122.759 201.104 122.497 201.08 122.235C201.04 121.692 200.996 121.206 200.944 120.727C200.888 120.101 200.828 119.519 200.749 118.937C200.664 118.209 200.568 117.518 200.461 116.841C200.369 116.202 200.263 115.607 200.157 115.013C200.06 114.47 199.955 113.926 199.842 113.402C199.76 112.955 199.685 112.591 199.601 112.233L199.572 112.098C199.504 111.779 199.436 111.459 199.353 111.146L199.322 111.018C199.285 110.839 199.239 110.667 199.195 110.494L199.172 110.405C199.108 110.117 199.037 109.842 198.958 109.561L198.925 109.433C198.854 109.12 198.767 108.8 198.672 108.487C198.504 107.861 198.349 107.318 198.177 106.774C198.093 106.487 198.022 106.25 197.941 106.02L197.833 105.816L197.774 105.56V105.157H199.53L202.052 103.873C202.115 103.994 202.169 104.122 202.213 104.256L202.357 104.531L202.363 104.735C202.438 104.966 202.508 105.196 202.577 105.426C202.758 105.995 202.934 106.608 203.1 107.235C203.2 107.567 203.309 107.957 203.4 108.359C203.497 108.705 203.586 109.05 203.665 109.408C203.708 109.567 203.764 109.785 203.814 110.015C203.91 110.379 203.993 110.763 204.073 111.14C204.183 111.619 204.273 112.06 204.354 112.501C204.464 113.006 204.581 113.607 204.688 114.201C204.802 114.847 204.916 115.492 205.012 116.157C205.123 116.867 205.229 117.621 205.315 118.368C205.397 118.976 205.465 119.621 205.524 120.273C205.578 120.765 205.626 121.309 205.665 121.852C205.69 122.108 205.71 122.421 205.731 122.74C205.749 123.002 205.77 123.296 205.78 123.59C205.816 124.076 205.844 124.639 205.855 125.214C205.891 126.109 205.91 127.061 205.91 128.007C205.91 150.607 196.106 172.07 179.014 186.879" fill="white"/>
<path d="M173.483 191.285C171.898 191.285 170.614 189.994 170.614 188.409C170.614 186.824 171.898 185.533 173.483 185.533C175.068 185.533 176.36 186.824 176.36 188.409C176.36 189.994 175.068 191.285 173.483 191.285ZM180.425 185.628C179.837 184.158 178.795 182.925 177.472 182.087C176.321 181.352 174.953 180.931 173.483 180.931C172.013 180.931 170.646 181.352 169.495 182.087C168.172 182.925 167.13 184.165 166.549 185.635C166.203 186.491 166.012 187.424 166.012 188.409C166.012 189.137 166.114 189.834 166.312 190.499C166.753 192.026 167.673 193.356 168.901 194.308C170.16 195.299 171.751 195.887 173.483 195.887C177.612 195.887 180.961 192.531 180.961 188.409C180.961 187.424 180.77 186.485 180.425 185.628" fill="white"/>
<path d="M200.827 100.159C200.827 101.744 199.536 103.035 197.951 103.035C196.366 103.035 195.075 101.744 195.075 100.159C195.075 98.5736 196.366 97.2825 197.951 97.2825C199.536 97.2825 200.827 98.5736 200.827 100.159ZM197.951 92.6806C197.785 92.6806 197.625 92.687 197.465 92.6998C195.835 92.8021 194.352 93.4284 193.17 94.4063C191.521 95.7869 190.473 97.8513 190.473 100.159C190.473 101.961 191.118 103.623 192.186 104.92C193.176 106.109 194.518 106.991 196.059 107.394C196.66 107.554 197.299 107.637 197.951 107.637C198.117 107.637 198.277 107.63 198.436 107.618C200.06 107.515 201.543 106.889 202.725 105.911C204.374 104.537 205.429 102.466 205.429 100.159C205.429 96.0362 202.073 92.6806 197.951 92.6806" fill="white"/>
<path d="M173.068 70.9567C171.476 70.9567 170.192 69.6656 170.192 68.0806C170.192 66.4955 171.476 65.2044 173.068 65.2044C174.653 65.2044 175.938 66.4955 175.938 68.0806C175.938 69.6656 174.653 70.9567 173.068 70.9567ZM173.068 60.6025C171.579 60.6025 170.192 61.0372 169.028 61.7914C167.705 62.6414 166.67 63.9005 166.095 65.3833C165.769 66.2206 165.59 67.1282 165.59 68.0806C165.59 69.0393 165.769 69.9533 166.101 70.7969C166.676 72.2734 167.705 73.5197 169.022 74.3634C170.185 75.124 171.579 75.5586 173.068 75.5586C174.762 75.5586 176.334 74.9898 177.587 74.0311C178.833 73.0787 179.773 71.7493 180.226 70.2153C180.431 69.5378 180.54 68.822 180.54 68.0806C180.54 63.958 177.19 60.6025 173.068 60.6025" fill="white"/>
</g>
<defs>
<clipPath id="clip0_1137_303">
<rect width="256" height="256" fill="white"/>
</clipPath>
</defs>
</svg>
